<svg width="32" height="32" viewBox="0 0 32 32" fill="none" xmlns="http://www.w3.org/2000/svg">
<g clip-path="url(#clip0_1_5)">
<path d="M22.864 10.843L17.207 16.5L22.864 22.157L22.157 22.864L16.5 17.207L10.843 22.864L10.136 22.157L15.793 16.5L10.136 10.843L10.843 10.136L16.5 15.793L22.157 10.136L22.864 10.843ZM29.8 16.5C29.8 19.1305 29.02 21.7019 27.5585 23.8891C26.0971 26.0763 24.02 27.7809 21.5897 28.7876C19.1594 29.7942 16.4852 30.0576 13.9053 29.5444C11.3254 29.0313 8.95552 27.7646 7.09548 25.9045C5.23544 24.0445 3.96874 21.6746 3.45556 19.0947C2.94238 16.5148 3.20576 13.8406 4.21241 11.4103C5.21905 8.98005 6.92375 6.90287 9.11092 5.44145C11.2981 3.98003 13.8695 3.2 16.5 3.2C20.0274 3.2 23.4103 4.60124 25.9045 7.09548C28.3988 9.58971 29.8 12.9726 29.8 16.5ZM28.8 16.5C28.8 14.0673 28.0786 11.6892 26.7271 9.66648C25.3755 7.64376 23.4545 6.06724 21.207 5.13628C18.9595 4.20532 16.4864 3.96174 14.1004 4.43634C11.7144 4.91094 9.52278 6.0824 7.80259 7.80258C6.0824 9.52277 4.91094 11.7144 4.43634 14.1004C3.96175 16.4864 4.20533 18.9595 5.13628 21.207C6.06724 23.4545 7.64376 25.3755 9.66649 26.7271C11.6892 28.0786 14.0673 28.8 16.5 28.8C19.761 28.7963 22.8874 27.4992 25.1933 25.1933C27.4992 22.8874 28.7963 19.761 28.8 16.5Z" fill="#F8F8F8"/>
</g>
<defs>
<clipPath id="clip0_1_5">
<rect width="32" height="32" fill="white"/>
</clipPath>
</defs>
</svg>
