<svg width="32" height="32" viewBox="0 0 32 32" fill="none" xmlns="http://www.w3.org/2000/svg">
<g clip-path="url(#clip0_1_8)">
<path d="M25.835 7H26.838L25.114 28.62C25.0825 28.9951 24.9117 29.3449 24.6351 29.6003C24.3586 29.8557 23.9964 29.9983 23.62 30H8.381C8.00438 29.9986 7.64197 29.8561 7.36523 29.6006C7.08849 29.3452 6.91751 28.9953 6.886 28.62L5.162 7H6.165L7.882 28.54C7.89273 28.6651 7.94989 28.7817 8.04223 28.8668C8.13457 28.952 8.25541 28.9995 8.381 29H23.619C23.7448 28.9997 23.8658 28.9523 23.9584 28.8672C24.051 28.782 24.1082 28.6653 24.119 28.54L25.835 7ZM19.5 25C19.6325 24.9997 19.7596 24.947 19.8533 24.8533C19.947 24.7596 19.9997 24.6325 20 24.5V10.5C20 10.3674 19.9473 10.2402 19.8536 10.1464C19.7598 10.0527 19.6326 10 19.5 10C19.3674 10 19.2402 10.0527 19.1464 10.1464C19.0527 10.2402 19 10.3674 19 10.5V24.5C19.0003 24.6325 19.053 24.7596 19.1467 24.8533C19.2404 24.947 19.3675 24.9997 19.5 25ZM12.5 25C12.6325 24.9997 12.7596 24.947 12.8533 24.8533C12.947 24.7596 12.9997 24.6325 13 24.5V10.5C13 10.3674 12.9473 10.2402 12.8536 10.1464C12.7598 10.0527 12.6326 10 12.5 10C12.3674 10 12.2402 10.0527 12.1464 10.1464C12.0527 10.2402 12 10.3674 12 10.5V24.5C12.0003 24.6325 12.053 24.7596 12.1467 24.8533C12.2404 24.947 12.3675 24.9997 12.5 25ZM29 5V6H3V5H11V3.5C11.0005 3.10234 11.1587 2.72111 11.4399 2.43992C11.7211 2.15873 12.1023 2.00053 12.5 2H19.5C19.8977 2.00053 20.2789 2.15873 20.5601 2.43992C20.8413 2.72111 20.9995 3.10234 21 3.5V5H29ZM20 5V3.5C20 3.36739 19.9473 3.24021 19.8536 3.14645C19.7598 3.05268 19.6326 3 19.5 3H12.5C12.3674 3 12.2402 3.05268 12.1464 3.14645C12.0527 3.24021 12 3.36739 12 3.5V5H20Z" fill="#F8F8F8"/>
</g>
<defs>
<clipPath id="clip0_1_8">
<rect width="32" height="32" fill="white"/>
</clipPath>
</defs>
</svg>
